<svg width="208" height="208" viewBox="0 0 208 208" fill="none" xmlns="http://www.w3.org/2000/svg">
<g filter="url(#filter0_d_127_5)">
<path d="M70.8952 161.04C70.8952 161.867 69.9677 162.529 68.7984 162.529C67.4677 162.653 66.5403 161.991 66.5403 161.04C66.5403 160.213 67.4677 159.551 68.6371 159.551C69.8468 159.427 70.8952 160.089 70.8952 161.04ZM58.3548 159.179C58.0726 160.006 58.879 160.957 60.0887 161.205C61.1371 161.619 62.3468 161.205 62.5887 160.378C62.8306 159.551 62.0645 158.6 60.8548 158.228C59.8065 157.938 58.6371 158.352 58.3548 159.179ZM76.1774 158.476C75.0081 158.765 74.2016 159.551 74.3226 160.502C74.4436 161.329 75.4919 161.867 76.7016 161.577C77.871 161.288 78.6774 160.502 78.5564 159.675C78.4355 158.889 77.3468 158.352 76.1774 158.476ZM102.71 0C46.7823 0 4 43.5477 4 100.908C4 146.772 32.1452 186.019 72.3468 199.831C77.5081 200.783 79.3226 197.516 79.3226 194.827C79.3226 192.263 79.2016 178.12 79.2016 169.435C79.2016 169.435 50.9758 175.638 45.0484 157.111C45.0484 157.111 40.4516 145.076 33.8387 141.975C33.8387 141.975 24.6048 135.482 34.4839 135.606C34.4839 135.606 44.5242 136.433 50.0484 146.276C58.879 162.239 73.6774 157.649 79.4436 154.919C80.371 148.302 82.9919 143.712 85.8952 140.982C63.3548 138.418 40.6129 135.068 40.6129 95.2839C40.6129 83.911 43.6774 78.2039 50.129 70.9253C49.0806 68.2372 45.6532 57.1538 51.1774 42.8447C59.6048 40.1565 79 54.0107 79 54.0107C87.0645 51.6948 95.7339 50.4955 104.323 50.4955C112.911 50.4955 121.581 51.6948 129.645 54.0107C129.645 54.0107 149.04 40.1152 157.468 42.8447C162.992 57.1951 159.565 68.2372 158.516 70.9253C164.968 78.2453 168.919 83.9524 168.919 95.2839C168.919 135.192 145.169 138.377 122.629 140.982C126.339 144.249 129.484 150.453 129.484 160.171C129.484 174.108 129.363 191.354 129.363 194.745C129.363 197.433 131.218 200.7 136.339 199.749C176.661 186.019 204 146.772 204 100.908C204 43.5477 158.637 0 102.71 0ZM43.1935 142.636C42.6694 143.05 42.7903 144.001 43.4758 144.787C44.121 145.449 45.0484 145.738 45.5726 145.2C46.0968 144.787 45.9758 143.836 45.2903 143.05C44.6452 142.388 43.7177 142.099 43.1935 142.636ZM38.8387 139.287C38.5565 139.824 38.9597 140.486 39.7661 140.899C40.4113 141.313 41.2177 141.189 41.5 140.61C41.7823 140.072 41.379 139.411 40.5726 138.997C39.7661 138.749 39.121 138.873 38.8387 139.287ZM51.9032 154.009C51.2581 154.547 51.5 155.788 52.4274 156.573C53.3548 157.524 54.5242 157.649 55.0484 156.987C55.5726 156.449 55.3306 155.209 54.5242 154.423C53.6371 153.472 52.4274 153.348 51.9032 154.009ZM47.3065 147.93C46.6613 148.343 46.6613 149.419 47.3065 150.37C47.9516 151.321 49.0403 151.735 49.5645 151.321C50.2097 150.783 50.2097 149.708 49.5645 148.757C49 147.806 47.9516 147.392 47.3065 147.93Z" fill="#58FF67"/>
</g>
<defs>
<filter id="filter0_d_127_5" x="0" y="0" width="208" height="208" filterUnits="userSpaceOnUse" color-interpolation-filters="sRGB">
<feFlood flood-opacity="0" result="BackgroundImageFix"/>
<feColorMatrix in="SourceAlpha" type="matrix" values="0 0 0 0 0 0 0 0 0 0 0 0 0 0 0 0 0 0 127 0" result="hardAlpha"/>
<feOffset dy="4"/>
<feGaussianBlur stdDeviation="2"/>
<feComposite in2="hardAlpha" operator="out"/>
<feColorMatrix type="matrix" values="0 0 0 0 0 0 0 0 0 0 0 0 0 0 0 0 0 0 0.25 0"/>
<feBlend mode="normal" in2="BackgroundImageFix" result="effect1_dropShadow_127_5"/>
<feBlend mode="normal" in="SourceGraphic" in2="effect1_dropShadow_127_5" result="shape"/>
</filter>
</defs>
</svg>
