<svg width="200" height="200" viewBox="0 0 200 200" fill="none" xmlns="http://www.w3.org/2000/svg">
<path d="M99.125 83.3952L85.7298 90.3629C81.9274 82.4677 75.5524 82.3266 74.6573 82.3266C65.7339 82.3266 61.2621 88.2177 61.2621 100.004C61.2621 109.508 64.9758 117.681 74.6573 117.681C80.4919 117.681 84.5968 114.823 86.9839 109.109L99.3024 115.359C96.8145 120 88.9436 131.077 73.0524 131.077C63.9395 131.077 43.2298 126.915 43.2298 100.008C43.2298 76.3427 60.5685 68.9355 72.5161 68.9355C84.9032 68.9314 93.7661 73.754 99.125 83.3952ZM156.806 83.3952L143.589 90.3629C139.758 82.3911 133.218 82.3266 132.339 82.3266C123.411 82.3266 118.944 88.2177 118.944 100.004C118.944 109.5 122.665 117.681 132.339 117.681C138.165 117.681 142.278 114.823 144.653 109.109L157.153 115.359C156.306 116.871 148.528 131.077 130.907 131.077C121.758 131.077 101.085 127.097 101.085 100.008C101.085 76.3508 118.411 68.9355 130.371 68.9355C142.754 68.9314 151.573 73.754 156.806 83.3952ZM99.8226 0C42.2339 0 0 46.3952 0 100C0 155.843 45.8064 200 99.8226 200C152.214 200 200 159.327 200 100C200 44.4073 157.008 0 99.8226 0ZM100.173 181.778C54.7944 181.778 18.0363 144.262 18.0363 100C18.0363 57.4919 52.4839 18.0363 100.181 18.0363C145.556 18.0363 181.964 54.1089 181.964 99.996C181.96 149.065 141.77 181.778 100.173 181.778Z" fill="#58FF67"/>
</svg>
