<svg width="178" height="200" viewBox="0 0 178 200" fill="none" xmlns="http://www.w3.org/2000/svg">
<path d="M177.954 99.9248L172.214 161.372C170.745 177.271 143.778 175.083 145.247 159.458L149.697 111.605L131.408 112.503C135.902 120.59 138.439 129.652 138.439 139.262C138.439 155.356 131.274 170.005 119.615 180.865L102.127 165.513C127.892 140.629 107.956 100.198 69.197 100.198C57.6716 100.198 47.1697 104.066 39.2932 110.355L21.8048 95.0028C31.5948 86.9166 44.0992 81.2915 58.0276 79.2992L91.5358 45.8217L72.579 36.1339L49.6171 54.1032C36.2672 64.5722 18.2004 46.8764 31.5948 36.3683L61.8545 12.6566C66.2155 9.21902 72.579 8.67213 77.6519 11.2503C77.6519 11.2503 139.64 42.8528 139.729 42.931C146.938 46.8764 148.94 56.9939 142.443 63.4784L116.456 89.4558L163.67 87.151C171.902 86.7213 178.622 92.7762 177.954 99.9248ZM149.074 39.7668C161.578 39.7668 171.724 30.8603 171.724 19.8834C171.724 8.90652 161.578 0 149.074 0C136.57 0 126.424 8.90652 126.424 19.8834C126.424 30.8603 136.57 39.7668 149.074 39.7668ZM69.2415 178.326C33.3748 178.326 12.5489 142.934 32.4403 117.347L14.7739 101.839C5.51796 112.113 0 125.121 0 139.223C0 190.279 67.061 217.897 111.872 187.076L94.2058 171.568C87.0859 175.826 78.4974 178.326 69.2415 178.326Z" fill="#58FF67"/>
</svg>
